<?xml version="1.0" encoding="utf-8"?>
<!-- Generator: Adobe Illustrator 26.3.1, SVG Export Plug-In . SVG Version: 6.00 Build 0)  -->
<svg version="1.1" id="Layer_1" xmlns="http://www.w3.org/2000/svg" xmlns:xlink="http://www.w3.org/1999/xlink" x="0px" y="0px"
	 viewBox="0 0 945 945" style="enable-background:new 0 0 945 945;" xml:space="preserve">
<style type="text/css">
	.st0{fill:#0063CD;}
	.st1{fill:#FFEC00;}
	.st2{clip-path:url(#XMLID_00000171681685233398538110000018216207320196243087_);}
	.st3{fill:#E20600;}
	.st4{fill:#FFFFFF;}
</style>
<g id="XMLID_129_">
	<g id="XMLID_364_">
		<g id="XMLID_365_">
			<g id="XMLID_366_">
				<path class="st0" d="M200.6,799.9C119.5,743,71.1,656,71.1,567.2l0-488.2L79,75C85,72.3,225.8,8,472.5,7.9
					C713.2,7.9,851,68.1,865.9,75l8,4v482.6c0,139.9-78,233-261,311.5c-90.2,42.3-140.3,64-140.3,64S265.3,845.3,200.6,799.9z"/>
			</g>
		</g>
	</g>
	<path id="XMLID_363_" class="st1" d="M473.6,312.7c-241.3,0.1-373,63.3-373,63.3s0,38,0,92.6h0.1c0,44.5,0,81.4,0,101.1
		c0,82.2,46.4,162.1,118.9,213c72.3,50.6,253.6,128.3,254,128.6l0,0l0,0l0,0l0,0c0.4-0.2,28.8-12.2,129.7-59.5
		c183.9-78.9,243.3-167.7,243.3-287.6c0-34.5,0-67.3,0-95.6c0-54.8,0-92.6,0-92.6s-130.8-63.3-372.5-63.3
		C474,312.7,473.8,312.7,473.6,312.7z"/>
	<g id="XMLID_355_">
		<defs>
			<path id="XMLID_356_" d="M473.6,315.8c-240.2,0.1-371.1,63-371.1,63s0,37.9,0,92.2h0.1c0,44.3,0,80.9,0,100.5
				c0,81.6,46.2,161.3,118.3,211.9c71.9,50.4,252.3,127.6,252.7,127.9l0,0l0,0l0,0l0,0c0.4-0.2,28.7-12.2,129-59.1
				C785.5,773.7,844.7,685.4,844.7,566c0-34.3,0-67,0-95.1c0-54.6,0-92.2,0-92.2s-130.1-63-370.6-63
				C474,315.8,473.8,315.8,473.6,315.8z"/>
		</defs>
		<clipPath id="XMLID_00000075147667353712293130000008976992366021780366_">
			<use xlink:href="#XMLID_356_"  style="overflow:visible;"/>
		</clipPath>
		<g id="XMLID_357_" style="clip-path:url(#XMLID_00000075147667353712293130000008976992366021780366_);">
			<path id="XMLID_362_" class="st3" d="M615.1,378.9c0,0-31.8,22.9-35.8,70.6c-4.9,58.7,64.5,110.8,68.7,152.1
				c3.6,36.5-4.6,62-44.7,91.8c0,0-11.9-1.1-4.3-8.6c7.7-7.5,43.3-37.1,28.1-84.3c-15.6-48.7-69.5-85.2-62.9-150.9
				c5.1-51.5,47.1-73.2,47.1-73.2S617.2,377.1,615.1,378.9z"/>
			<path id="XMLID_361_" class="st3" d="M542.1,527.3c0,0-8.2,13.5-5.5,40.2c2.7,26.5,14.5,27.1,16.3,59
				c1.6,29.4-13.7,50.5-31.3,66.4c0,0-0.2,5.6,10.5-0.5c10.6-6.2,42.2-32.1,37.2-78.5c-3.7-33.9-21.3-33.8-24.2-67.9
				C544,531.8,549.5,524.7,542.1,527.3z"/>
			<path id="XMLID_360_" class="st3" d="M416.4,729.3c0,0-32.4-13.9-28.5-42.2c3.9-28.3,27.7-45.8,41-56.2
				c13.2-10.4,46.4-31.3,53-51c6.7-19.8,5.2-17.2,12.9-16.2c7.7,0.8,12.7,46.7,12.7,46.7s0.3,1.2-1.8,2.9c-2.1,1.7-4.8,0.5-5.9-3.2
				c-1-3.8-4.9-19.9-5.5-20.9c-0.5-1-2.3-2.5-3.5,0c-1.3,2.7-8.1,14.5-19.7,23.9c-11.7,9.4-37.8,31.2-47.2,42.2
				c-9.4,10.8-17.9,24.1-17.4,37.6c0.4,13.6,10.5,27,13,30.1C421.9,726.2,416.4,729.3,416.4,729.3z"/>
			<path id="XMLID_359_" class="st3" d="M525.6,442c0,0-14.7,6.5-22.7,31.1c-8.2,24.8-14.9,45-28.8,58.9
				c-13.8,14-21.5,18.3-42.9,27.9c-21.5,9.5-76.2,25.3-92.7,81.6c-16.5,56.1,33.2,98.5,59.7,108.3c-2.5,4.4-10.2,19.1,10.9,31.8
				c21,12.7,91.7,3.4,126.6-21.1c34.9-24.5,47.9-41,49.1-60.7c1.4-19.7-11.7-24.3-16.6-25.2c0,0-3.2,2-2,4.4
				c1.2,2.5,6.7,4.4,7.2,7.1c0.4,2.7,4,7.1-3.3,18.3c-7.4,11.1-27.5,31.2-55.4,44.2c-27.9,12.9-58.1,20.3-83.3,21.4
				c-25.1,1.1-34.6-7.3-25.7-19c0,0,15.3,4.4,30.7,2.7c15.5-1.7,11.1-5.6,9.6-9c0,0-32.6,1.5-52.5-13.4
				c-20-14.7-37.3-46.5-33.7-80.2c3.6-33.6,27-55.6,71.3-72.4c44.2-16.9,61.1-38.4,67.1-55.2c6-16.7,9.7-25.9,13-40.9
				c3.2-15.1,4.9-23.8,16.6-37.9C527.7,444.6,529,443.1,525.6,442z"/>
			<path id="XMLID_358_" class="st3" d="M586.6,730.6c0,0,2.3,31.7-56.4,67.5c-44.3,27.1-98.4,19.6-96.9,5.1c0,0-14.5,1.6-4.9,15.4
				c11.7,16.4,27.7,3.4,38.5,25c10.6,21.2,40.5,79.6,40.5,79.6l17.3-7.3c0,0-30-56.7-33.2-68.8c-3.2-12.1,6.4-14.8,17.6-18.4
				c11.2-3.4,28.8-12,34.8-14.6c6-2.6,14-2.4,15.3,4.6c1.3,7.1,13.4,66,14.3,71.1c0.9,5.1,7.1,2.2,7.1,2.2l7.6-3.6l-1.8-9.2
				c0,0-11-82.1-9.6-90.8c1.4-8.8,9.7-18.6,12.5-24.5C592.5,757.9,605,736.8,586.6,730.6z"/>
		</g>
	</g>
	<path id="XMLID_354_" class="st4" d="M473.7,312.2L473.7,312.2c-235.8,0.1-368,62.2-369.2,62.9l-3.8,1.8V387l3.8-2
		c1.2-0.6,133.5-62.7,369.2-62.8h0c236.6,0,367.9,62.4,369.2,62.9l3.7,1.8v-10.1l-3.7-1.8C841.6,374.5,710.2,312.2,473.7,312.2z"/>
	<g id="XMLID_130_">
		<g id="XMLID_341_">
			<path id="XMLID_352_" class="st4" d="M260.3,84.8v31.1h32.8V84.8h17.7v80.8h-17.7v-34.8h-32.8v34.8h-17.7V84.8H260.3z"/>
			<path id="XMLID_350_" class="st4" d="M385.8,159.4c-6,5.3-14.5,8-25.2,8c-11,0-19.4-2.7-25.4-8c-6-5.3-9-13.4-9-24.4V84.8h17.8
				V135c0,2.2,0.2,4.3,0.5,6.4c0.4,2.1,1.2,3.9,2.5,5.7c1.1,1.6,2.8,2.9,5,3.9c2.1,1,5,1.5,8.7,1.5c6.3,0,10.7-1.4,13.1-4.2
				c2.4-2.8,3.6-7.3,3.6-13.3V84.8H395V135C395,146,391.9,154.1,385.8,159.4z"/>
			<path id="XMLID_348_" class="st4" d="M403.9,99.8v-15H470v15h-24.1v65.8h-17.8V99.8H403.9z"/>
			<path id="XMLID_346_" class="st4" d="M539.7,84.8v15h-42.7v17.3h39.1v13.9h-39.1v19.7h43.5v15h-61.3V84.8H539.7z"/>
			<path id="XMLID_344_" class="st4" d="M604.4,106.3c-1.1-1.7-2.4-3.2-4-4.4c-1.5-1.3-3.3-2.3-5.4-2.9c-2-0.8-4.1-1-6.2-1
				c-4,0-7.4,0.7-10.2,2.2c-2.9,1.5-5.1,3.7-6.8,6.2c-1.8,2.7-3.1,5.6-3.8,9c-0.8,3.3-1.2,6.7-1.2,10.2c0,3.4,0.4,6.7,1.2,9.9
				c0.8,3.2,2,6.1,3.8,8.7c1.6,2.5,3.9,4.6,6.8,6.1c2.7,1.5,6.1,2.3,10.2,2.3c5.4,0,9.6-1.6,12.7-4.9c3.1-3.3,4.9-7.7,5.6-13.1h17.1
				c-0.4,5-1.6,9.6-3.5,13.7c-1.9,4.1-4.4,7.5-7.4,10.5c-3.1,2.8-6.7,5-10.9,6.5c-4.1,1.5-8.7,2.3-13.6,2.3
				c-6.2,0-11.7-1.1-16.7-3.3c-4.9-2.1-9.2-5.1-12.5-8.9c-3.4-3.8-6-8.2-7.8-13.3c-1.8-5.1-2.7-10.6-2.7-16.4c0-6,0.9-11.6,2.7-16.8
				c1.8-5.2,4.4-9.7,7.8-13.6c3.3-3.8,7.5-6.8,12.5-9c5-2.2,10.5-3.3,16.7-3.3c4.5,0,8.6,0.7,12.6,1.9c3.9,1.3,7.5,3.2,10.6,5.7
				c3.1,2.4,5.7,5.5,7.8,9.1c2,3.5,3.3,7.7,3.9,12.4h-17.2C606.1,109.9,605.5,108.1,604.4,106.3z"/>
			<path id="XMLID_342_" class="st4" d="M654.1,84.8v31.1h32.8V84.8h17.7v80.8h-17.7v-34.8h-32.8v34.8h-17.7V84.8H654.1z"/>
		</g>
		<g id="XMLID_133_">
			<path id="XMLID_339_" class="st4" d="M296.3,258.4c-4.9,4.7-11.9,6.9-21,6.9c-9.4,0-16.7-2.2-21.8-6.6
				c-5.3-4.5-7.9-11.5-7.9-21.1v-46.1h9.6v46.1c0,6.5,1.8,11.4,5.2,14.7c3.5,3.4,8.5,5.1,15,5.1c6.1,0,10.8-1.7,14-5.1
				c3.2-3.3,4.8-8.3,4.8-14.7v-46.1h9.6v46.1C303.7,246.8,301.3,253.7,296.3,258.4z"/>
			<path id="XMLID_325_" class="st4" d="M327.8,211.4v8.2h0.2c3.6-6.3,9.2-9.5,17-9.5c3.5,0,6.3,0.5,8.7,1.4c2.2,0.9,4,2.3,5.5,4
				c1.4,1.7,2.4,3.7,3,6c0.6,2.3,0.8,4.9,0.8,7.7v34.5h-8.5v-35.4c0-3.3-1-5.8-2.9-7.7c-1.9-1.9-4.5-2.9-7.8-2.9
				c-2.6,0-4.9,0.4-6.9,1.3c-1.9,0.9-3.5,1.9-4.8,3.5c-1.3,1.4-2.3,3.2-2.8,5.2c-0.8,2-1,4.2-1,6.5v29.6h-8.6v-52.4H327.8z"/>
			<path id="XMLID_322_" class="st4" d="M378.5,202v-10.5h8.6V202H378.5z M387.1,211.4v52.4h-8.6v-52.4H387.1z"/>
			<path id="XMLID_320_" class="st4" d="M416.9,263.7l-19.5-52.4h9.6l14.6,43.6h0.2l14.2-43.6h9l-19.1,52.4H416.9z"/>
			<path id="XMLID_316_" class="st4" d="M492.2,260.4c-4,2.9-8.8,4.5-14.7,4.5c-4.3,0-7.8-0.7-10.9-2.1c-3.1-1.3-5.7-3.2-7.8-5.7
				c-2-2.4-3.6-5.4-4.7-8.7c-1-3.4-1.6-7.1-1.8-11.1c0-3.9,0.6-7.6,1.9-10.9c1.2-3.3,2.9-6.2,5.1-8.6c2.2-2.5,4.8-4.3,7.9-5.6
				c3-1.4,6.3-2.1,9.8-2.1c4.6,0,8.5,1,11.6,3c3.1,1.8,5.5,4.2,7.4,7.3c1.8,3,3.1,6.2,3.8,9.7c0.8,3.5,1.1,6.8,0.9,10h-39.2
				c0,2.3,0.2,4.4,0.8,6.5c0.6,2.2,1.6,3.9,2.9,5.5c1.4,1.6,3.1,2.9,5.2,3.8c2.1,1,4.5,1.5,7.4,1.5c3.7,0,6.6-0.9,9-2.6
				c2.3-1.7,3.9-4.3,4.6-7.7h8.5C498.6,253,496.2,257.5,492.2,260.4z M490.2,226.7c-0.8-1.8-1.9-3.4-3.1-4.7
				c-1.3-1.4-2.9-2.4-4.7-3.2c-1.9-0.7-3.8-1.2-5.9-1.2c-2.3,0-4.3,0.4-6,1.2c-1.9,0.8-3.3,1.9-4.6,3.2c-1.3,1.3-2.3,2.9-3,4.7
				c-0.7,1.9-1.2,3.8-1.4,5.8h30.1C491.4,230.5,490.9,228.6,490.2,226.7z"/>
			<path id="XMLID_180_" class="st4" d="M519.3,211.4v11.1h0.2c2-4.3,4.6-7.4,7.7-9.5c3-2,6.9-2.9,11.5-2.8v9.1
				c-3.5,0-6.4,0.5-8.9,1.4c-2.4,0.9-4.3,2.4-5.9,4.2c-1.5,1.8-2.6,4-3.2,6.6c-0.7,2.5-1,5.5-1,8.9v23.3h-8.6v-52.4H519.3z"/>
			<path id="XMLID_178_" class="st4" d="M553.9,252c0.8,1.3,1.8,2.3,3.2,3.1c1.3,0.7,2.8,1.3,4.4,1.7c1.7,0.3,3.4,0.5,5.1,0.5
				c1.3,0,2.7-0.2,4.2-0.4c1.6-0.2,2.9-0.5,4.1-1.1c1.3-0.5,2.2-1.3,3.1-2.3c0.9-1.1,1.2-2.4,1.2-4c0-2.2-0.8-3.9-2.6-5.1
				c-1.6-1.1-3.8-2.1-6.3-2.8c-2.6-0.7-5.3-1.3-8.3-1.9c-3-0.6-5.7-1.4-8.2-2.5c-2.6-1-4.7-2.5-6.3-4.3c-1.7-2-2.6-4.6-2.6-8
				c0-2.6,0.6-4.9,1.8-6.8c1.2-1.9,2.7-3.5,4.5-4.6c1.9-1.2,4-2.1,6.3-2.7c2.3-0.5,4.7-0.9,6.9-0.9c3,0,5.8,0.3,8.3,0.8
				c2.4,0.5,4.6,1.4,6.6,2.7c1.9,1.2,3.4,3,4.6,5c1.2,2,1.8,4.8,2.1,8h-8.6c-0.2-1.7-0.6-3.1-1.4-4.1c-0.7-1.2-1.7-2.1-2.8-2.9
				c-1.2-0.6-2.4-1.1-3.8-1.3c-1.4-0.3-2.8-0.5-4.2-0.5c-1.3,0-2.5,0.1-3.9,0.4c-1.3,0.2-2.5,0.5-3.6,1.1c-1.1,0.4-1.9,1.2-2.6,2
				c-0.7,0.8-1,1.9-1,3.2c0,1.5,0.5,2.7,1.5,3.7c1.1,1,2.4,1.8,4,2.4c1.6,0.6,3.4,1.1,5.5,1.6c1.9,0.4,4,1,6.1,1.4
				c2.1,0.5,4.2,1.1,6.3,1.7c2.1,0.7,3.8,1.6,5.4,2.7c1.6,1.2,2.9,2.6,3.8,4.2c1,1.7,1.5,3.8,1.5,6.3c0,3.2-0.7,5.8-2,7.8
				c-1.4,2.1-3.1,3.7-5.2,5.1c-2.1,1.3-4.5,2.2-7.2,2.7c-2.7,0.5-5.3,0.8-7.9,0.8c-2.9,0-5.7-0.3-8.3-1c-2.6-0.6-4.9-1.6-7-2.9
				c-2-1.5-3.6-3.3-4.8-5.5c-1.3-2.3-2-5.1-2-8.3h8.6C552.6,249.1,553.1,250.7,553.9,252z"/>
			<path id="XMLID_173_" class="st4" d="M600.4,202v-10.5h8.6V202H600.4z M609,211.4v52.4h-8.6v-52.4H609z"/>
			<path id="XMLID_169_" class="st4" d="M646.8,211.4v7.6h-10.5v32.6c0,0.9,0.1,1.7,0.3,2.3c0.2,0.7,0.5,1.1,0.9,1.4
				c0.5,0.3,1.2,0.6,2,0.7c0.8,0.1,1.9,0.1,3.3,0.1h4v7.6h-6.7c-2.2,0-4.1-0.1-5.7-0.4c-1.6-0.4-2.9-0.8-3.9-1.7
				c-1-0.9-1.7-2-2.1-3.5c-0.5-1.4-0.8-3.4-0.8-5.8V219h-8.9v-7.6h8.9v-15.7h8.6v15.7H646.8z"/>
			<path id="XMLID_154_" class="st4" d="M675.9,277.1c-0.9,1.7-2,3.1-3.3,4.3c-1.1,1.1-2.4,2-3.8,2.4c-1.4,0.4-3.1,0.7-5.1,0.7
				c-1,0-1.9-0.1-3-0.2c-1,0-2-0.4-3-0.6v-7.9c0.8,0.3,1.6,0.5,2.4,0.8c0.9,0.3,1.8,0.4,2.6,0.4c1.8,0,3.2-0.4,4.3-1.2
				c1.1-0.8,2-2,2.9-3.5l3.5-8.8l-20.7-52.1h9.7l15.2,42.8h0.3l14.6-42.8h9.1l-22.8,59.2C677.9,273.1,676.8,275.3,675.9,277.1z"/>
		</g>
	</g>
</g>
</svg>
