<?xml version="1.0" encoding="utf-8"?>
<!-- Generator: Adobe Illustrator 26.3.1, SVG Export Plug-In . SVG Version: 6.00 Build 0)  -->
<svg version="1.1" id="Layer_1" xmlns="http://www.w3.org/2000/svg" xmlns:xlink="http://www.w3.org/1999/xlink" x="0px" y="0px"
	 viewBox="0 0 1080 1080" style="enable-background:new 0 0 1080 1080;" xml:space="preserve">
<style type="text/css">
	.st0{fill:#0063CD;}
	.st1{fill:#FFEC00;}
	.st2{clip-path:url(#XMLID_00000098185951592807057510000003092753074809317505_);}
	.st3{fill:#E20600;}
	.st4{fill:#FFFFFF;}
</style>
<g id="XMLID_129_">
	<g id="XMLID_364_">
		<g id="XMLID_365_">
			<g id="XMLID_366_">
				<path class="st0" d="M231.4,911.6c-92.1-64.6-147-163.3-147-264.1l0-554.2l9-4.5c6.8-3.1,166.6-76.1,446.7-76.2
					c273.2,0,429.5,68.4,446.5,76.1l9.1,4.5v547.8c0,158.7-88.6,264.5-296.3,353.6c-102.3,48-159.2,72.6-159.2,72.6
					S304.8,963.2,231.4,911.6z"/>
			</g>
		</g>
	</g>
	<path id="XMLID_363_" class="st1" d="M541.3,358.6c-273.9,0.1-423.4,71.8-423.4,71.8s0,43.2,0,105.1h0.1c0,50.5,0,92.4,0,114.7
		c0,93.3,52.7,184,134.9,241.8c82,57.5,287.9,145.6,288.3,146l0,0l0,0l0,0l0,0c0.5-0.2,32.7-13.9,147.2-67.5
		C897.1,881,964.6,780.3,964.6,644.1c0-39.2,0-76.4,0-108.5c0-62.2,0-105.1,0-105.1s-148.4-71.8-422.8-71.8
		C541.7,358.6,541.5,358.6,541.3,358.6z"/>
	<g id="XMLID_355_">
		<defs>
			<path id="XMLID_356_" d="M541.3,362.1c-272.6,0.1-421.2,71.5-421.2,71.5s0,43,0,104.6h0.1c0,50.3,0,91.9,0,114.1
				c0,92.7,52.4,183.1,134.2,240.6c81.6,57.2,286.4,144.9,286.9,145.2l0,0l0,0l0,0l0,0c0.5-0.2,32.6-13.8,146.5-67.1
				c207.6-89.1,274.8-189.3,274.8-324.9c0-39,0-76.1,0-107.9c0-61.9,0-104.6,0-104.6s-147.7-71.5-420.7-71.5
				C541.7,362.1,541.5,362.1,541.3,362.1z"/>
		</defs>
		<clipPath id="XMLID_00000054255355795475820600000004164599428091991954_">
			<use xlink:href="#XMLID_356_"  style="overflow:visible;"/>
		</clipPath>
		<g id="XMLID_357_" style="clip-path:url(#XMLID_00000054255355795475820600000004164599428091991954_);">
			<path id="XMLID_362_" class="st3" d="M701.8,433.8c0,0-36.1,26-40.6,80.1c-5.5,66.6,73.2,125.7,78,172.6
				c4.1,41.4-5.2,70.4-50.7,104.2c0,0-13.6-1.2-4.9-9.7c8.7-8.5,49.1-42.1,31.9-95.7c-17.7-55.2-78.9-96.7-71.5-171.3
				c5.8-58.5,53.5-83.1,53.5-83.1S704.3,431.7,701.8,433.8z"/>
			<path id="XMLID_361_" class="st3" d="M619,602.1c0,0-9.4,15.3-6.2,45.6c3,30.1,16.4,30.7,18.5,67c1.8,33.4-15.6,57.3-35.5,75.4
				c0,0-0.2,6.4,11.9-0.5c12-7.1,47.9-36.4,42.2-89.1c-4.2-38.5-24.1-38.3-27.5-77.1C621.1,607.3,627.4,599.2,619,602.1z"/>
			<path id="XMLID_360_" class="st3" d="M476.4,831.5c0,0-36.7-15.8-32.4-47.9c4.4-32.1,31.5-51.9,46.5-63.8
				c15-11.8,52.6-35.5,60.1-57.8c7.6-22.5,5.9-19.5,14.7-18.4c8.7,0.9,14.4,53,14.4,53s0.3,1.3-2,3.3c-2.4,2-5.4,0.6-6.7-3.7
				c-1.2-4.3-5.6-22.6-6.3-23.8c-0.6-1.2-2.6-2.9-4,0c-1.5,3-9.1,16.4-22.3,27.1c-13.3,10.7-42.9,35.5-53.6,47.9
				c-10.7,12.2-20.3,27.3-19.7,42.7c0.5,15.4,12,30.6,14.8,34.1C482.6,828,476.4,831.5,476.4,831.5z"/>
			<path id="XMLID_359_" class="st3" d="M600.3,505.3c0,0-16.6,7.4-25.8,35.3c-9.3,28.1-16.9,51-32.7,66.9
				c-15.7,15.8-24.4,20.8-48.7,31.7c-24.4,10.8-86.5,28.8-105.2,92.6c-18.7,63.7,37.7,111.8,67.7,122.9c-2.9,5-11.5,21.7,12.4,36.1
				c23.8,14.4,104.1,3.8,143.7-24c39.7-27.9,54.3-46.6,55.7-68.9c1.5-22.4-13.2-27.5-18.9-28.6c0,0-3.6,2.2-2.3,5
				c1.3,2.9,7.6,5,8.2,8c0.5,3,4.5,8.1-3.7,20.8c-8.4,12.6-31.2,35.5-62.9,50.2c-31.6,14.7-66,23.1-94.6,24.3
				c-28.5,1.2-39.2-8.3-29.2-21.6c0,0,17.3,5,34.9,3.1c17.6-1.9,12.6-6.4,10.9-10.2c0,0-37,1.7-59.6-15.2
				c-22.7-16.7-42.3-52.8-38.3-91.1c4.1-38.2,30.7-63.1,80.9-82.2c50.2-19.1,69.3-43.6,76.2-62.7c6.8-19,11-29.4,14.7-46.5
				c3.7-17.2,5.6-27,18.9-43C602.6,508.3,604.1,506.7,600.3,505.3z"/>
			<path id="XMLID_358_" class="st3" d="M669.5,832.9c0,0,2.6,35.9-64,76.6c-50.2,30.8-111.7,22.3-110,5.7c0,0-16.5,1.9-5.6,17.4
				c13.2,18.6,31.4,3.8,43.7,28.4c12,24,46,90.4,46,90.4l19.7-8.2c0,0-34.1-64.4-37.7-78c-3.7-13.7,7.2-16.8,19.9-20.8
				c12.8-3.9,32.7-13.6,39.5-16.6c6.8-2.9,15.9-2.7,17.4,5.2c1.5,8,15.2,74.9,16.3,80.7c1,5.8,8.1,2.5,8.1,2.5l8.6-4.1l-2-10.5
				c0,0-12.5-93.1-10.9-103c1.6-10,11-21.1,14.2-27.8C676.2,863.9,690.4,840,669.5,832.9z"/>
		</g>
	</g>
	<path id="XMLID_354_" class="st4" d="M541.3,358L541.3,358c-267.6,0.1-417.7,70.7-419.1,71.4l-4.3,2.1V443l4.3-2.2
		c1.4-0.6,151.5-71.2,419-71.3h0.1c268.5,0,417.6,70.8,419.1,71.5l4.2,2.1v-11.5l-4.2-2.1C958.9,428.7,809.9,358,541.3,358z"/>
	<g id="XMLID_130_">
		<g id="XMLID_341_">
			<path id="XMLID_352_" class="st4" d="M299.2,99.9v35.3h37.2V99.9h20.1v91.7h-20.1v-39.5h-37.2v39.5h-20.1V99.9H299.2z"/>
			<path id="XMLID_350_" class="st4" d="M441.5,184.6c-6.9,6-16.4,9.1-28.7,9.1c-12.5,0-22.1-3.1-28.9-9.1
				c-6.8-6-10.3-15.2-10.3-27.7V99.9H394v57.1c0,2.5,0.2,4.9,0.6,7.3c0.5,2.4,1.4,4.4,2.8,6.4c1.3,1.8,3.2,3.3,5.6,4.4
				c2.4,1.1,5.7,1.7,9.9,1.7c7.2,0,12.1-1.6,14.9-4.8c2.7-3.2,4.1-8.3,4.1-15.1V99.9H452v57.1C452,169.3,448.5,178.6,441.5,184.6z"
				/>
			<path id="XMLID_348_" class="st4" d="M462.1,116.9v-17h75.1v17h-27.4v74.7h-20.2v-74.7H462.1z"/>
			<path id="XMLID_346_" class="st4" d="M616.3,99.9v17h-48.4v19.6h44.4v15.7h-44.4v22.4h49.4v17h-69.6V99.9H616.3z"/>
			<path id="XMLID_344_" class="st4" d="M689.7,124.4c-1.2-1.9-2.7-3.6-4.5-5c-1.7-1.4-3.8-2.6-6.1-3.3c-2.3-0.9-4.7-1.2-7.1-1.2
				c-4.6,0-8.4,0.8-11.5,2.5c-3.3,1.7-5.8,4.2-7.7,7c-2,3.1-3.5,6.3-4.3,10.2c-0.9,3.7-1.4,7.6-1.4,11.6c0,3.8,0.4,7.6,1.4,11.2
				c0.9,3.6,2.3,6.9,4.3,9.9c1.9,2.9,4.4,5.2,7.7,7c3.1,1.7,7,2.6,11.5,2.6c6.2,0,10.9-1.8,14.4-5.6c3.5-3.8,5.6-8.7,6.4-14.9h19.4
				c-0.5,5.7-1.8,10.9-4,15.5c-2.1,4.6-4.9,8.5-8.4,11.9c-3.6,3.1-7.6,5.7-12.4,7.4c-4.6,1.7-9.8,2.6-15.5,2.6
				c-7.1,0-13.3-1.3-18.9-3.8c-5.6-2.4-10.4-5.8-14.2-10.1c-3.9-4.3-6.8-9.3-8.9-15.1c-2-5.7-3-12.1-3-18.7c0-6.8,1-13.1,3-19
				c2.1-5.9,5-11,8.9-15.4c3.8-4.3,8.6-7.7,14.2-10.2c5.7-2.5,11.9-3.8,18.9-3.8c5.1,0,9.8,0.8,14.3,2.1c4.5,1.5,8.5,3.6,12.1,6.4
				c3.5,2.8,6.5,6.2,8.8,10.4c2.3,4,3.8,8.7,4.4,14.1H692C691.7,128.4,690.9,126.3,689.7,124.4z"/>
			<path id="XMLID_342_" class="st4" d="M746.2,99.9v35.3h37.2V99.9h20.1v91.7h-20.1v-39.5h-37.2v39.5h-20.1V99.9H746.2z"/>
		</g>
		<g id="XMLID_133_">
			<path id="XMLID_339_" class="st4" d="M340,296.9c-5.6,5.3-13.5,7.9-23.9,7.9c-10.6,0-19-2.5-24.8-7.5c-6-5.1-9-13-9-24V221h10.9
				v52.4c0,7.3,2,12.9,5.9,16.7c3.9,3.8,9.6,5.8,17,5.8c6.9,0,12.2-1.9,15.9-5.8c3.6-3.8,5.4-9.4,5.4-16.7V221h10.9v52.4
				C348.3,283.8,345.6,291.7,340,296.9z"/>
			<path id="XMLID_325_" class="st4" d="M375.7,243.6v9.3h0.2c4.1-7.1,10.5-10.7,19.3-10.7c3.9,0,7.2,0.6,9.9,1.6
				c2.5,1.1,4.6,2.6,6.2,4.5c1.5,1.9,2.7,4.2,3.4,6.8c0.6,2.7,0.9,5.5,0.9,8.8V303H406v-40.2c0-3.8-1.1-6.6-3.2-8.8
				c-2.2-2.2-5.1-3.3-8.8-3.3c-3,0-5.6,0.5-7.8,1.4c-2.2,1-3.9,2.2-5.4,3.9c-1.5,1.6-2.6,3.6-3.2,5.9c-0.9,2.3-1.2,4.7-1.2,7.4V303
				h-9.8v-59.4H375.7z"/>
			<path id="XMLID_322_" class="st4" d="M433.3,232.9V221h9.8v11.9H433.3z M443.1,243.6V303h-9.8v-59.4H443.1z"/>
			<path id="XMLID_320_" class="st4" d="M476.9,303l-22.1-59.4h10.9l16.6,49.5h0.2l16.2-49.5H509L487.3,303H476.9z"/>
			<path id="XMLID_316_" class="st4" d="M562.3,299.2c-4.5,3.3-10,5.1-16.7,5.1c-4.8,0-8.9-0.8-12.4-2.3c-3.5-1.5-6.5-3.7-8.8-6.4
				c-2.3-2.7-4.1-6.1-5.4-9.8c-1.1-3.9-1.8-8-2-12.6c0-4.5,0.7-8.6,2.1-12.4c1.4-3.7,3.3-7,5.7-9.7c2.5-2.8,5.5-4.9,8.9-6.4
				c3.4-1.5,7.1-2.4,11.2-2.4c5.2,0,9.6,1.2,13.2,3.4c3.5,2.1,6.3,4.8,8.4,8.3c2.1,3.4,3.5,7,4.3,11c0.9,4,1.2,7.8,1,11.4h-44.5
				c0,2.6,0.3,5,0.9,7.3c0.7,2.5,1.8,4.5,3.3,6.2c1.5,1.8,3.5,3.3,5.9,4.3c2.4,1.1,5.1,1.7,8.4,1.7c4.2,0,7.5-1,10.2-2.9
				c2.7-1.9,4.4-4.8,5.2-8.8h9.6C569.6,290.8,566.9,295.9,562.3,299.2z M560,261c-0.9-2-2.2-3.8-3.6-5.3c-1.5-1.6-3.3-2.7-5.3-3.6
				c-2.1-0.8-4.3-1.3-6.7-1.3c-2.6,0-4.9,0.5-6.8,1.3c-2.1,0.9-3.8,2.2-5.2,3.6c-1.5,1.5-2.6,3.2-3.4,5.3c-0.8,2.1-1.3,4.3-1.5,6.5
				h34.2C561.4,265.4,560.8,263.2,560,261z"/>
			<path id="XMLID_180_" class="st4" d="M593.2,243.6v12.6h0.2c2.3-4.9,5.2-8.4,8.8-10.8c3.4-2.3,7.8-3.3,13.1-3.2v10.4
				c-3.9,0-7.3,0.5-10.1,1.6c-2.7,1.1-4.9,2.7-6.7,4.8c-1.7,2-2.9,4.5-3.6,7.5c-0.8,2.9-1.2,6.2-1.2,10.1V303h-9.8v-59.4H593.2z"/>
			<path id="XMLID_178_" class="st4" d="M632.4,289.8c0.9,1.4,2.1,2.6,3.6,3.6c1.5,0.8,3.1,1.5,5,1.9c1.9,0.3,3.9,0.6,5.8,0.6
				c1.5,0,3-0.3,4.8-0.4c1.8-0.2,3.3-0.6,4.7-1.3c1.4-0.5,2.5-1.5,3.5-2.6c1-1.2,1.4-2.8,1.4-4.6c0-2.5-1-4.5-2.9-5.8
				c-1.9-1.2-4.3-2.3-7.1-3.2c-2.9-0.8-6-1.5-9.4-2.2c-3.4-0.6-6.5-1.6-9.3-2.8c-2.9-1.2-5.3-2.9-7.1-4.9c-2-2.2-2.9-5.2-2.9-9.1
				c0-2.9,0.6-5.5,2-7.7c1.4-2.2,3.1-3.9,5.1-5.2c2.2-1.4,4.6-2.4,7.2-3c2.6-0.6,5.3-1,7.8-1c3.4,0,6.6,0.3,9.4,0.9
				c2.7,0.6,5.3,1.6,7.5,3c2.2,1.4,3.9,3.4,5.2,5.7c1.4,2.3,2.1,5.5,2.4,9h-9.8c-0.2-1.9-0.7-3.6-1.6-4.7c-0.8-1.4-1.9-2.4-3.2-3.2
				c-1.3-0.7-2.8-1.2-4.3-1.5c-1.6-0.3-3.2-0.6-4.8-0.6c-1.5,0-2.9,0.1-4.4,0.4c-1.5,0.2-2.8,0.6-4.1,1.2c-1.2,0.5-2.2,1.4-3,2.3
				c-0.8,0.9-1.1,2.2-1.1,3.7c0,1.7,0.6,3.1,1.7,4.2c1.2,1.1,2.8,2.1,4.5,2.8c1.8,0.7,3.9,1.3,6.2,1.8c2.2,0.5,4.5,1.1,6.9,1.6
				c2.4,0.6,4.8,1.2,7.1,1.9c2.3,0.8,4.4,1.8,6.2,3c1.8,1.3,3.2,2.9,4.4,4.8c1.1,2,1.7,4.3,1.7,7.2c0,3.6-0.8,6.6-2.2,8.9
				c-1.6,2.4-3.5,4.2-5.9,5.7c-2.4,1.5-5.1,2.5-8.2,3.1c-3,0.6-6,0.9-9,0.9c-3.3,0-6.5-0.3-9.5-1.1c-3-0.6-5.6-1.8-7.9-3.3
				c-2.3-1.7-4.1-3.7-5.5-6.3c-1.4-2.6-2.2-5.8-2.3-9.4h9.8C630.9,286.4,631.4,288.2,632.4,289.8z"/>
			<path id="XMLID_173_" class="st4" d="M685.1,232.9V221h9.8v11.9H685.1z M694.9,243.6V303h-9.8v-59.4H694.9z"/>
			<path id="XMLID_169_" class="st4" d="M737.9,243.6v8.7H726v37c0,1.1,0.1,1.9,0.3,2.6c0.2,0.8,0.6,1.3,1,1.6
				c0.6,0.4,1.3,0.7,2.3,0.8c0.9,0.1,2.2,0.1,3.7,0.1h4.6v8.7h-7.6c-2.5,0-4.7-0.1-6.5-0.5c-1.8-0.4-3.3-1-4.4-1.9
				c-1.1-1-1.9-2.3-2.4-4c-0.5-1.6-0.9-3.8-0.9-6.6v-37.8h-10.1v-8.7h10.1v-17.8h9.8v17.8H737.9z"/>
			<path id="XMLID_154_" class="st4" d="M770.8,318.2c-1.1,2-2.3,3.5-3.7,4.8c-1.3,1.2-2.7,2.2-4.4,2.8c-1.6,0.5-3.5,0.8-5.8,0.8
				c-1.2,0-2.2-0.1-3.4-0.2c-1.2,0-2.3-0.4-3.4-0.7v-9c0.9,0.3,1.8,0.6,2.8,0.9c1,0.3,2,0.5,3,0.5c2,0,3.6-0.5,4.9-1.4
				c1.2-0.9,2.3-2.2,3.2-4l4-10l-23.5-59.1h11l17.3,48.6h0.3l16.6-48.6h10.4l-25.8,67.2C773.1,313.7,771.9,316.1,770.8,318.2z"/>
		</g>
	</g>
</g>
</svg>
