<?xml version="1.0" encoding="utf-8"?>
<!-- Generator: Adobe Illustrator 26.3.1, SVG Export Plug-In . SVG Version: 6.00 Build 0)  -->
<svg version="1.1" id="Layer_1" xmlns="http://www.w3.org/2000/svg" xmlns:xlink="http://www.w3.org/1999/xlink" x="0px" y="0px"
	 viewBox="0 0 1080 1080" style="enable-background:new 0 0 1080 1080;" xml:space="preserve">
<style type="text/css">
	.st0{fill:#0063CD;}
	.st1{fill:#FFEC00;}
	.st2{clip-path:url(#XMLID_00000045596346534749246400000017293201544253704122_);}
	.st3{fill:#E20600;}
	.st4{fill:#FFFFFF;}
</style>
<g id="XMLID_129_">
	<g id="XMLID_364_">
		<g id="XMLID_365_">
			<g id="XMLID_366_">
				<path class="st0" d="M237.5,904.3C147.2,841,93.3,744.2,93.3,645.4l0-543.3l8.8-4.4C108.8,94.6,265.4,23,540,23
					c267.8,0,421.1,67,437.7,74.6l8.9,4.4v537.1c0,155.6-86.8,259.3-290.5,346.7c-100.3,47-156.1,71.2-156.1,71.2
					S309.4,954.9,237.5,904.3z"/>
			</g>
		</g>
	</g>
	<path id="XMLID_363_" class="st1" d="M541.2,362.2c-268.5,0.1-415.1,70.4-415.1,70.4s0,42.3,0,103h0.1c0,49.5,0,90.6,0,112.5
		c0,91.4,51.6,180.4,132.3,237.1c80.4,56.3,282.2,142.8,282.7,143.1l0,0l0,0l0,0l0,0c0.4-0.2,32.1-13.6,144.3-66.2
		c204.6-87.9,270.7-186.6,270.7-320.1c0-38.4,0-74.9,0-106.4c0-61,0-103,0-103s-145.5-70.4-414.5-70.4
		C541.7,362.2,541.5,362.2,541.2,362.2z"/>
	<g id="XMLID_355_">
		<defs>
			<path id="XMLID_356_" d="M541.2,365.6c-267.2,0.1-412.9,70.1-412.9,70.1s0,42.1,0,102.5h0.1c0,49.3,0,90.1,0,111.9
				c0,90.8,51.4,179.5,131.6,235.9c80,56.1,280.8,142,281.2,142.4l0,0l0,0l0,0l0,0c0.4-0.2,32-13.5,143.6-65.8
				c203.5-87.4,269.4-185.6,269.4-318.5c0-38.2,0-74.6,0-105.8c0-60.7,0-102.5,0-102.5s-144.8-70.1-412.4-70.1
				C541.7,365.6,541.5,365.6,541.2,365.6z"/>
		</defs>
		<clipPath id="XMLID_00000062913401927231888610000003988735875243379366_">
			<use xlink:href="#XMLID_356_"  style="overflow:visible;"/>
		</clipPath>
		<g id="XMLID_357_" style="clip-path:url(#XMLID_00000062913401927231888610000003988735875243379366_);">
			<path id="XMLID_362_" class="st3" d="M698.7,435.9c0,0-35.4,25.5-39.8,78.5c-5.4,65.3,71.8,123.3,76.5,169.3
				c4,40.6-5.1,69-49.7,102.2c0,0-13.3-1.2-4.8-9.5c8.5-8.3,48.1-41.3,31.3-93.8c-17.3-54.2-77.3-94.8-70-167.9
				c5.7-57.3,52.4-81.5,52.4-81.5S701.1,433.8,698.7,435.9z"/>
			<path id="XMLID_361_" class="st3" d="M617.4,600.9c0,0-9.2,15-6.1,44.7c3,29.5,16.1,30.1,18.2,65.7c1.8,32.8-15.3,56.2-34.8,73.9
				c0,0-0.2,6.3,11.7-0.5c11.7-7,46.9-35.7,41.4-87.3c-4.1-37.7-23.7-37.6-27-75.6C619.5,606,625.7,598,617.4,600.9z"/>
			<path id="XMLID_360_" class="st3" d="M477.6,825.8c0,0-36-15.5-31.7-47c4.3-31.4,30.9-50.9,45.6-62.5
				c14.7-11.6,51.6-34.8,58.9-56.7c7.4-22,5.8-19.1,14.4-18c8.6,0.9,14.1,52,14.1,52s0.3,1.3-2,3.3c-2.3,1.9-5.3,0.6-6.6-3.6
				c-1.2-4.3-5.5-22.2-6.1-23.3c-0.6-1.1-2.5-2.8-3.9,0c-1.5,3-9,16.1-21.9,26.6c-13,10.5-42.1,34.8-52.5,46.9
				c-10.4,12-19.9,26.8-19.3,41.9c0.5,15.1,11.7,30,14.5,33.5C483.7,822.3,477.6,825.8,477.6,825.8z"/>
			<path id="XMLID_359_" class="st3" d="M599.1,506c0,0-16.3,7.2-25.3,34.7c-9.1,27.5-16.6,50-32.1,65.6
				c-15.4,15.5-23.9,20.4-47.8,31c-23.9,10.6-84.8,28.2-103.1,90.8c-18.3,62.5,36.9,109.6,66.4,120.5c-2.8,4.9-11.3,21.3,12.1,35.4
				c23.4,14.2,102,3.7,140.9-23.5c38.9-27.3,53.3-45.7,54.6-67.5c1.5-21.9-13-27-18.5-28c0,0-3.5,2.2-2.3,4.9c1.3,2.8,7.4,4.9,8,7.8
				c0.5,3,4.5,8-3.6,20.4c-8.2,12.3-30.6,34.8-61.6,49.2c-31,14.4-64.7,22.6-92.7,23.8c-28,1.2-38.5-8.1-28.6-21.2
				c0,0,17,4.9,34.2,3c17.3-1.9,12.3-6.3,10.7-10c0,0-36.3,1.6-58.5-14.9c-22.2-16.4-41.5-51.8-37.5-89.3
				c4-37.4,30.1-61.9,79.3-80.6c49.2-18.8,67.9-42.7,74.7-61.4c6.7-18.6,10.7-28.8,14.4-45.5c3.6-16.9,5.5-26.5,18.5-42.1
				C601.4,509,602.8,507.3,599.1,506z"/>
			<path id="XMLID_358_" class="st3" d="M667,827.2c0,0,2.6,35.2-62.7,75.1c-49.3,30.2-109.5,21.8-107.8,5.6c0,0-16.2,1.8-5.4,17.1
				c13,18.3,30.8,3.8,42.8,27.8c11.8,23.6,45.1,88.6,45.1,88.6l19.3-8.1c0,0-33.4-63.1-36.9-76.5c-3.6-13.5,7.1-16.5,19.5-20.4
				c12.5-3.8,32-13.4,38.7-16.3c6.7-2.8,15.6-2.6,17.1,5.1c1.5,7.9,14.9,73.4,16,79.1c1,5.7,7.9,2.4,7.9,2.4l8.5-4l-2-10.3
				c0,0-12.3-91.3-10.7-101c1.6-9.8,10.7-20.7,14-27.2C673.5,857.6,687.5,834.2,667,827.2z"/>
		</g>
	</g>
	<path id="XMLID_354_" class="st4" d="M541.3,361.6L541.3,361.6c-262.4,0.1-409.5,69.3-410.9,70l-4.3,2v11.3l4.3-2.2
		c1.4-0.6,148.5-69.8,410.8-69.9h0.1c263.3,0,409.4,69.4,410.9,70l4.1,2v-11.3l-4.1-2.1C950.7,430.9,804.6,361.6,541.3,361.6z"/>
	<g id="XMLID_130_">
		<g id="XMLID_341_">
			<path id="XMLID_352_" class="st4" d="M303.9,108.5v34.6h36.5v-34.6h19.7v89.9h-19.7v-38.7h-36.5v38.7h-19.7v-89.9H303.9z"/>
			<path id="XMLID_350_" class="st4" d="M443.5,191.6c-6.7,5.9-16.1,8.9-28.1,8.9c-12.2,0-21.6-3-28.3-8.9
				c-6.6-5.8-10.1-14.9-10.1-27.2v-55.9h19.8v55.9c0,2.4,0.2,4.8,0.5,7.2c0.5,2.3,1.3,4.3,2.8,6.3c1.3,1.8,3.1,3.3,5.5,4.4
				c2.4,1.1,5.6,1.7,9.7,1.7c7,0,11.9-1.6,14.6-4.7c2.7-3.1,4-8.2,4-14.8v-55.9h19.8v55.9C453.8,176.6,450.3,185.7,443.5,191.6z"/>
			<path id="XMLID_348_" class="st4" d="M463.6,125.2v-16.7h73.6v16.7h-26.9v73.3h-19.8v-73.3H463.6z"/>
			<path id="XMLID_346_" class="st4" d="M614.8,108.5v16.7h-47.5v19.3h43.6v15.4h-43.6v21.9h48.4v16.7h-68.2v-89.9H614.8z"/>
			<path id="XMLID_344_" class="st4" d="M686.8,132.5c-1.2-1.8-2.6-3.6-4.4-4.9c-1.6-1.4-3.7-2.5-6-3.3c-2.2-0.8-4.6-1.2-6.9-1.2
				c-4.5,0-8.3,0.7-11.3,2.5c-3.2,1.7-5.7,4.1-7.5,6.9c-2,3-3.4,6.2-4.3,10c-0.9,3.7-1.4,7.5-1.4,11.4c0,3.7,0.4,7.5,1.4,11
				c0.9,3.6,2.3,6.7,4.3,9.7c1.8,2.8,4.3,5.1,7.5,6.8c3,1.7,6.8,2.5,11.3,2.5c6,0,10.7-1.8,14.1-5.5c3.4-3.7,5.5-8.6,6.3-14.6h19
				c-0.4,5.6-1.8,10.7-3.9,15.2c-2.1,4.5-4.8,8.4-8.3,11.6c-3.5,3.1-7.5,5.5-12.1,7.3c-4.5,1.6-9.6,2.6-15.2,2.6
				c-6.9,0-13-1.3-18.6-3.7c-5.5-2.4-10.2-5.7-13.9-9.9c-3.8-4.3-6.7-9.1-8.7-14.8c-2-5.6-3-11.8-3-18.3c0-6.7,1-12.9,3-18.7
				c2-5.8,4.9-10.8,8.7-15.1c3.7-4.2,8.4-7.6,13.9-10c5.6-2.5,11.7-3.7,18.6-3.7c5,0,9.6,0.7,14,2.1c4.4,1.5,8.4,3.6,11.8,6.3
				c3.4,2.7,6.4,6.1,8.6,10.2c2.3,3.9,3.7,8.5,4.3,13.8H689C688.7,136.5,687.9,134.4,686.8,132.5z"/>
			<path id="XMLID_342_" class="st4" d="M742.1,108.5v34.6h36.4v-34.6h19.7v89.9h-19.7v-38.7h-36.4v38.7h-19.7v-89.9H742.1z"/>
		</g>
		<g id="XMLID_133_">
			<path id="XMLID_339_" class="st4" d="M343.9,301.7c-5.5,5.2-13.3,7.7-23.4,7.7c-10.4,0-18.6-2.5-24.3-7.3
				c-5.8-5-8.8-12.8-8.8-23.5v-51.3h10.6v51.3c0,7.2,2,12.7,5.8,16.4c3.8,3.8,9.4,5.6,16.6,5.6c6.8,0,12-1.9,15.6-5.6
				c3.5-3.7,5.3-9.2,5.3-16.4v-51.3h10.7v51.3C352.1,288.9,349.5,296.5,343.9,301.7z"/>
			<path id="XMLID_325_" class="st4" d="M378.9,249.4v9.1h0.2c4-7,10.3-10.5,18.9-10.5c3.9,0,7.1,0.5,9.7,1.6
				c2.4,1.1,4.5,2.5,6.1,4.4c1.5,1.8,2.7,4.1,3.4,6.7c0.6,2.6,0.9,5.4,0.9,8.6v38.3h-9.5v-39.4c0-3.7-1.1-6.5-3.2-8.6
				c-2.2-2.2-5-3.2-8.7-3.2c-2.9,0-5.5,0.5-7.7,1.4c-2.1,1-3.8,2.1-5.3,3.8c-1.5,1.6-2.5,3.6-3.1,5.8c-0.9,2.2-1.2,4.6-1.2,7.2v32.9
				h-9.6v-58.3H378.9z"/>
			<path id="XMLID_322_" class="st4" d="M435.4,238.9v-11.7h9.6v11.7H435.4z M445,249.4v58.3h-9.6v-58.3H445z"/>
			<path id="XMLID_320_" class="st4" d="M478.1,307.6l-21.7-58.3h10.7l16.3,48.6h0.2l15.9-48.6h10.1l-21.3,58.3H478.1z"/>
			<path id="XMLID_316_" class="st4" d="M561.9,303.9c-4.4,3.3-9.8,5-16.4,5c-4.7,0-8.7-0.8-12.2-2.3c-3.4-1.5-6.3-3.6-8.6-6.3
				c-2.3-2.7-4-6-5.2-9.7c-1.1-3.8-1.8-7.8-2-12.4c0-4.4,0.7-8.5,2.1-12.2c1.3-3.7,3.2-6.9,5.6-9.5c2.5-2.7,5.4-4.8,8.8-6.3
				c3.3-1.5,7-2.3,10.9-2.3c5.1,0,9.4,1.1,12.9,3.3c3.4,2,6.1,4.7,8.2,8.1c2,3.4,3.4,6.9,4.2,10.8c0.8,3.9,1.2,7.6,1,11.2h-43.7
				c0,2.5,0.2,4.9,0.9,7.2c0.7,2.4,1.8,4.4,3.3,6.1c1.5,1.8,3.4,3.2,5.8,4.3c2.4,1.1,5,1.7,8.2,1.7c4.1,0,7.4-1,10-2.9
				c2.6-1.9,4.3-4.7,5.1-8.6h9.4C569.1,295.7,566.3,300.7,561.9,303.9z M559.6,266.5c-0.9-2-2.2-3.7-3.5-5.2
				c-1.5-1.5-3.3-2.6-5.2-3.5c-2.1-0.8-4.2-1.3-6.6-1.3c-2.6,0-4.8,0.5-6.7,1.3c-2.1,0.9-3.7,2.1-5.1,3.6c-1.4,1.5-2.6,3.2-3.4,5.2
				c-0.8,2.1-1.3,4.2-1.5,6.4h33.5C561,270.7,560.4,268.6,559.6,266.5z"/>
			<path id="XMLID_180_" class="st4" d="M592.1,249.4v12.3h0.2c2.3-4.8,5.1-8.3,8.6-10.5c3.3-2.2,7.6-3.3,12.8-3.2v10.2
				c-3.9,0-7.1,0.5-9.9,1.6c-2.7,1-4.8,2.7-6.5,4.7c-1.6,2-2.9,4.4-3.6,7.4c-0.8,2.8-1.2,6.1-1.2,9.9v25.9h-9.6v-58.3H592.1z"/>
			<path id="XMLID_178_" class="st4" d="M630.5,294.7c0.9,1.4,2.1,2.6,3.5,3.5c1.5,0.8,3.1,1.4,4.9,1.9c1.9,0.3,3.8,0.6,5.7,0.6
				c1.4,0,3-0.3,4.7-0.4c1.7-0.2,3.2-0.6,4.6-1.2c1.4-0.5,2.5-1.5,3.4-2.6c1-1.2,1.4-2.7,1.4-4.5c0-2.4-0.9-4.4-2.9-5.7
				c-1.8-1.2-4.2-2.3-7-3.1c-2.9-0.8-5.9-1.5-9.2-2.1c-3.3-0.6-6.3-1.6-9.1-2.8c-2.9-1.1-5.2-2.8-7-4.8c-1.9-2.2-2.9-5.1-2.9-8.9
				c0-2.9,0.6-5.4,2-7.5c1.3-2.1,3-3.8,5-5.1c2.2-1.3,4.5-2.3,7-3c2.5-0.6,5.2-0.9,7.7-0.9c3.3,0,6.4,0.3,9.2,0.9
				c2.7,0.5,5.2,1.6,7.3,3c2.1,1.4,3.8,3.3,5.1,5.6c1.3,2.3,2,5.4,2.3,8.9h-9.6c-0.2-1.9-0.7-3.5-1.5-4.6c-0.8-1.3-1.9-2.3-3.1-3.2
				c-1.3-0.7-2.7-1.2-4.2-1.5c-1.6-0.3-3.1-0.6-4.7-0.6c-1.4,0-2.8,0.1-4.4,0.4c-1.5,0.2-2.7,0.6-4,1.2c-1.2,0.5-2.2,1.3-2.9,2.3
				c-0.7,0.9-1.1,2.1-1.1,3.6c0,1.6,0.6,3.1,1.7,4.1c1.2,1.1,2.7,2,4.5,2.7c1.8,0.7,3.8,1.3,6.1,1.8c2.2,0.5,4.5,1.1,6.8,1.5
				c2.4,0.6,4.7,1.2,7,1.9c2.3,0.8,4.3,1.8,6.1,3c1.7,1.3,3.2,2.9,4.3,4.7c1.1,1.9,1.7,4.2,1.7,7c0,3.5-0.8,6.4-2.2,8.7
				c-1.5,2.3-3.4,4.2-5.8,5.6c-2.4,1.5-5,2.5-8,3c-3,0.6-5.9,0.9-8.8,0.9c-3.2,0-6.4-0.3-9.3-1.1c-2.9-0.6-5.5-1.7-7.8-3.2
				c-2.3-1.6-4-3.7-5.3-6.2c-1.4-2.5-2.2-5.7-2.3-9.2h9.6C629.1,291.4,629.6,293.2,630.5,294.7z"/>
			<path id="XMLID_173_" class="st4" d="M682.3,238.9v-11.7h9.6v11.7H682.3z M691.9,249.4v58.3h-9.6v-58.3H691.9z"/>
			<path id="XMLID_169_" class="st4" d="M734,249.4v8.5h-11.7v36.2c0,1,0.1,1.9,0.3,2.6c0.2,0.8,0.6,1.3,1,1.6
				c0.6,0.4,1.3,0.7,2.3,0.8c0.9,0.1,2.2,0.1,3.6,0.1h4.5v8.5h-7.4c-2.5,0-4.6-0.1-6.3-0.5c-1.8-0.4-3.2-0.9-4.3-1.9
				c-1.1-1-1.9-2.3-2.4-3.9c-0.5-1.6-0.8-3.7-0.8-6.5v-37h-9.9v-8.5h9.9v-17.5h9.6v17.5H734z"/>
			<path id="XMLID_154_" class="st4" d="M766.3,322.6c-1,1.9-2.3,3.5-3.7,4.8c-1.3,1.2-2.6,2.2-4.3,2.7c-1.6,0.5-3.5,0.8-5.7,0.8
				c-1.1,0-2.2-0.1-3.3-0.2c-1.1,0-2.3-0.4-3.3-0.7V321c0.9,0.3,1.8,0.6,2.7,0.9c1,0.3,2,0.5,2.9,0.5c2,0,3.6-0.5,4.8-1.3
				c1.2-0.9,2.2-2.2,3.2-3.9l3.9-9.8l-23.1-57.9h10.8l16.9,47.7h0.3l16.3-47.7H795l-25.3,65.9C768.5,318.1,767.4,320.5,766.3,322.6z
				"/>
		</g>
	</g>
</g>
</svg>
